<svg xmlns="http://www.w3.org/2000/svg" xmlns:xlink="http://www.w3.org/1999/xlink" viewBox="0 0 57.43 44.23"><defs><style>.a{fill:none;}.b{clip-path:url(#a);}.c{fill:url(#b);}</style><clipPath id="a" transform="translate(0 0)"><path class="a" d="M3.77,21.27c0-.09,0-.17,0-.25l0-.2Zm2.64-5.59h0ZM9.81,3.46A17.38,17.38,0,0,1,7.46,8.14a43.84,43.84,0,0,0-2.78,4.44c-.4.82-.88,2.29-2.09,2-1.77-.4-1.12-3.43-1-4.58,0-.33.2-3-.6-2.83C.57,7.28.62,8.55.62,8.55c0,.17.1,1.12.1,1.12a17.06,17.06,0,0,1-.32,2.1c-.14,1.36-.4,3.05.16,4.34a7.6,7.6,0,0,0,1.64,2A5.74,5.74,0,0,1,3.74,21c.24,1.28,1.57,7.73,1.85,8.39a18,18,0,0,0,5.94,7.35c2.55,1.84,6,2.56,8.75,4,.95.5,1.42,3.46,1.42,3.46l1.1-1.28,1.25.41-.17-1.08,1.4.11L25,41.3l1.32-.13a1.33,1.33,0,0,1-1-.66c-1.44-1.9,1.72-5.57-.53-7.4a10.79,10.79,0,0,1-.14,2.76c-.66.66-.66,2.42-1.87,2.4-.4,0-2.79-2.51-2.91-2.39a26.72,26.72,0,0,0-2.56-2.29c-1.12-.87-1.51-2.93-1.55-3.64s.51-2,.28-2.72c-.3-.89-.68.47-.76.74a9.21,9.21,0,0,0-.39,4.31,7.34,7.34,0,0,0,.83,2.46,6.25,6.25,0,0,1,.9,1.54c-1.39-1-3-1.36-4.33-2.42a15.08,15.08,0,0,1-2.93-3.32A11.38,11.38,0,0,1,8,28a12.75,12.75,0,0,1-.6-2.36c-.33-3.23.88-3.36,3.49-4.87a5.82,5.82,0,0,0,2.39-2.54c.13-.25.86-1.5.3-1.67s-.54.71-.67.91c-1,1.38-5,3.95-6.09,1.9-.57-1.07-.24-3.1-.15-4.23A13,13,0,0,1,8,10.43a51.23,51.23,0,0,0,2.29-5.57c.23-.61.7-4.47-.1-4.65h0c-.4,0-.29,2.91-.38,3.25m37-.61a14.83,14.83,0,0,0,1.27,4.28c.72,1.78,1.42,3.57,2.09,5.32A5.91,5.91,0,0,1,51,14.71a13.78,13.78,0,0,1,0,4.18c-.49,1.92-3.34.89-4.56.17a4.43,4.43,0,0,1-1.43-1.27c-.16-.24-.4-1.18-.66-1.26-1.08-.37.49,2.31.61,2.47,1.25,1.76,3.69,2,4.79,3.81,1.41,2.36-1.07,6.25-2.34,8.21-1.59,2.44-4,3.47-6.26,5.14,0-.49.47-.9.72-1.32a7.4,7.4,0,0,0,.92-2.54c.14-1,.08-4.7-.94-5.39-.33-.22-.12,1.28-.1,1.47a5.69,5.69,0,0,1-.24,3.19c-.74,1.6-2.66,3.13-3.89,4.36-.8.81-2.19,2.63-3.27,2.17-1.64-.69-1.53-3.62-1.53-5-1.47.57-.59,4.48-.39,5.51a3.06,3.06,0,0,1-1,2.88l1-.15-.25.89,1.15-.4.2,1.35,1-.72.94,1.05a5,5,0,0,1,.65-2.1c.43-.63,1.59-.87,2.32-1.15,1.55-.59,3-1.36,4.57-2A18,18,0,0,0,50.56,32a19,19,0,0,0,2.39-5.8c.6-2.1.71-4.42,1.36-6.46s2.79-2.7,3-5a17.29,17.29,0,0,0-.23-3.8c-.07-.53.08-3.25-.22-3.53-1.25-1.14-.7,4-.7,4.64,0,1.21-.27,2.46-1.73,2.46A10.25,10.25,0,0,1,53,12.86,27,27,0,0,0,50.74,9a22.86,22.86,0,0,1-2.37-3.81,7.25,7.25,0,0,1-.52-2.5A8.91,8.91,0,0,0,47.67.17C47.58.05,47.51,0,47.44,0c-.48,0-.65,2.5-.62,2.85"/></clipPath><linearGradient id="b" x1="-15.27" y1="80.96" x2="-14.27" y2="80.96" gradientTransform="matrix(0, -44.23, -44.23, 0, 3609.25, -631.03)" gradientUnits="userSpaceOnUse"><stop offset="0" stop-color="#b48a3e"/><stop offset="0.4" stop-color="#b48a3e"/><stop offset="1" stop-color="#fff"/></linearGradient></defs><title>Asset 2imper_</title><g class="b"><rect class="c" width="57.43" height="44.23"/></g></svg>