<?xml version="1.0" encoding="utf-8"?>
<!-- Generator: Adobe Illustrator 21.1.0, SVG Export Plug-In . SVG Version: 6.00 Build 0)  -->
<svg version="1.1" id="Layer_1" xmlns="http://www.w3.org/2000/svg" xmlns:xlink="http://www.w3.org/1999/xlink" x="0px" y="0px"
	 viewBox="0 0 88.1 88.1" style="enable-background:new 0 0 88.1 88.1;" xml:space="preserve">
<style type="text/css">
	.st0{fill:#222222;}
	.st1{clip-path:url(#SVGID_2_);fill:none;stroke:#B48A3E;stroke-width:2;stroke-miterlimit:10;}
	.st2{fill:#FFFFFF;}
	.st3{font-family:'Palatino-Roman';}
	.st4{font-size:4.8039px;}
	.st5{font-size:5.0614px;}
	.st6{fill:#B58B36;}
	.st7{font-family:'GreatVibes-Regular';}
	.st8{font-size:18.6244px;}
	.st9{clip-path:url(#SVGID_4_);fill:url(#SVGID_5_);}
</style>
<rect x="1" y="1" class="st0" width="86.1" height="86.1"/>
<g>
	<defs>
		<rect id="SVGID_1_" y="0" width="88.1" height="88.1"/>
	</defs>
	<clipPath id="SVGID_2_">
		<use xlink:href="#SVGID_1_"  style="overflow:visible;"/>
	</clipPath>
	<rect x="1" y="1" class="st1" width="86.1" height="86.1"/>
</g>
<text transform="matrix(1 0 0 1 11.8901 80.1052)"><tspan x="0" y="0" class="st2 st3 st4">WELLNESS &amp; RES</tspan><tspan x="40.4" y="0" class="st2 st3 st4">T</tspan><tspan x="43" y="0" class="st2 st3 st4">AURANT</tspan></text>
<text transform="matrix(1 0 0 1 37.3296 73.1169)" class="st2 st3 st5">DVOR</text>
<path class="st6" d="M14,71.1h21.5H14z"/>
<polygon class="st6" points="13.9,71.1 35.4,71.5 35.4,70.8 "/>
<polygon class="st6" points="53.5,71.5 75.1,71.1 53.5,70.8 "/>
<text transform="matrix(1 0 0 1 10.1548 66.3337)" class="st2 st7 st8">Floriánov</text>
<g>
	<defs>
		<path id="SVGID_3_" d="M19,28.4c0-0.1,0-0.2,0-0.2c0-0.1,0-0.2,0-0.2L19,28.4z M21.7,22.8C21.7,22.8,21.7,22.8,21.7,22.8
			L21.7,22.8z M25.1,10.6c-0.4,1.6-1.5,3.3-2.4,4.7c-1,1.5-2,2.8-2.8,4.4c-0.4,0.8-0.9,2.3-2.1,2c-1.8-0.4-1.1-3.4-1-4.6
			c0-0.3,0.2-3-0.6-2.8c-0.4,0.1-0.3,1.3-0.3,1.3c0,0.2,0.1,1.1,0.1,1.1c0,0.7-0.3,1.6-0.3,2.1c-0.1,1.4-0.4,3.1,0.2,4.3
			c0.4,0.9,1,1.3,1.6,2c0.8,0.9,1.4,1.8,1.5,2.9c0.2,1.3,1.6,7.7,1.8,8.4c1.2,2.8,3.4,5.5,5.9,7.4c2.5,1.8,6,2.6,8.8,4
			c0.9,0.5,1.4,3.5,1.4,3.5l1.1-1.3l1.3,0.4l-0.2-1.1l1.4,0.1l-0.3-1.1l1.3-0.1c-0.5-0.2-0.6-0.2-1-0.7c-1.4-1.9,1.7-5.6-0.5-7.4
			C40,41.2,40.2,42.1,40,43c-0.7,0.7-0.7,2.4-1.9,2.4c-0.4,0-2.8-2.5-2.9-2.4c-1.2-1.3-1.4-1.2-2.6-2.3c-1.1-0.9-1.5-2.9-1.6-3.6
			c-0.1-0.8,0.5-2,0.3-2.7c-0.3-0.9-0.7,0.5-0.8,0.7c-0.4,1.4-0.6,2.8-0.4,4.3c0.2,0.9,0.4,1.7,0.8,2.5c0.3,0.5,0.8,1,0.9,1.5
			c-1.4-1-3-1.4-4.3-2.4c-1.6-1.2-1.7-1.8-2.9-3.3c-0.4-0.6-1.2-1.8-1.4-2.6c-0.2-0.6-0.5-1.7-0.6-2.4c-0.3-3.2,0.9-3.4,3.5-4.9
			c1.1-0.6,1.8-1.4,2.4-2.5c0.1-0.3,0.9-1.5,0.3-1.7c-0.5-0.1-0.5,0.7-0.7,0.9c-1,1.4-5,3.9-6.1,1.9c-0.6-1.1-0.2-3.1-0.2-4.2
			c0.1-1.7,0.7-3.1,1.4-4.7c0.9-1.8,1.6-3.6,2.3-5.6c0.2-0.6,0.7-4.5-0.1-4.7c0,0,0,0,0,0C25.1,7.4,25.2,10.3,25.1,10.6 M62.1,10
			c0.1,1.5,0.7,2.9,1.3,4.3c0.7,1.8,1.4,3.6,2.1,5.3c0.3,0.9,0.7,1,0.8,2.3c0.1,1.3,0.3,3,0,4.2c-0.5,1.9-3.3,0.9-4.6,0.2
			c-0.6-0.3-1.1-0.7-1.4-1.3c-0.2-0.2-0.4-1.2-0.7-1.3c-1.1-0.4,0.5,2.3,0.6,2.5c1.3,1.8,3.7,2,4.8,3.8c1.4,2.4-1.1,6.3-2.3,8.2
			c-1.6,2.4-4,3.5-6.3,5.1c0-0.5,0.5-0.9,0.7-1.3c0.4-0.7,0.8-1.7,0.9-2.5c0.1-1,0.1-4.7-0.9-5.4c-0.3-0.2-0.1,1.3-0.1,1.5
			c0.1,1.1,0.2,2.1-0.2,3.2c-0.7,1.6-2.7,3.1-3.9,4.4c-0.8,0.8-2.2,2.6-3.3,2.2c-1.6-0.7-1.5-3.6-1.5-5c-1.5,0.6-0.6,4.5-0.4,5.5
			c0.2,1.1-0.2,2.2-1,2.9l1-0.1l-0.2,0.9l1.2-0.4l0.2,1.4l1-0.7l0.9,1.1c0.1-0.7,0.3-1.6,0.6-2.1c0.4-0.6,1.6-0.9,2.3-1.1
			c1.5-0.6,3-1.4,4.6-2c3.1-1.5,5.7-3.4,7.6-6.3c1.2-1.8,1.8-3.7,2.4-5.8c0.6-2.1,0.7-4.4,1.4-6.5c0.6-2,2.8-2.7,3-5
			c0.1-1.2-0.1-2.6-0.2-3.8c-0.1-0.5,0.1-3.2-0.2-3.5c-1.2-1.1-0.7,4-0.7,4.6c0,1.2-0.3,2.5-1.7,2.5c0,0.1-1.3-1.5-1.4-1.7
			c-0.7-1.4-1.4-2.6-2.3-3.9c-0.9-1.2-1.8-2.4-2.4-3.8c-0.4-0.8-0.4-1.6-0.5-2.5c0-0.5,0.1-2.1-0.2-2.5c-0.1-0.1-0.2-0.2-0.2-0.2
			C62.2,7.1,62.1,9.6,62.1,10"/>
	</defs>
	<clipPath id="SVGID_4_">
		<use xlink:href="#SVGID_3_"  style="overflow:visible;"/>
	</clipPath>
	
		<linearGradient id="SVGID_5_" gradientUnits="userSpaceOnUse" x1="-3.967636e-06" y1="88.1037" x2="1" y2="88.1037" gradientTransform="matrix(0 44.2269 44.2269 0 -3852.5642 7.1484)">
		<stop  offset="0" style="stop-color:#B48A3E"/>
		<stop  offset="0.4" style="stop-color:#B48A3E"/>
		<stop  offset="1" style="stop-color:#FFFFFF"/>
	</linearGradient>
	<rect x="15.3" y="7.1" class="st9" width="57.4" height="44.2"/>
</g>
</svg>
