<?xml version="1.0" encoding="utf-8"?>
<!-- Generator: Adobe Illustrator 21.1.0, SVG Export Plug-In . SVG Version: 6.00 Build 0)  -->
<svg version="1.1" id="Layer_1" xmlns="http://www.w3.org/2000/svg" xmlns:xlink="http://www.w3.org/1999/xlink" x="0px" y="0px"
	 viewBox="0 0 184.1 65.7" style="enable-background:new 0 0 184.1 65.7;" xml:space="preserve">
<style type="text/css">
	.st0{fill:#222222;stroke:#B48A3E;stroke-width:2;stroke-miterlimit:10;}
	.st1{fill:#FFFFFF;}
	.st2{fill:#B58B36;}
</style>
<title>Asset 29imper_</title>
<g>
	
		<rect x="60.4" y="-58.2" transform="matrix(4.078427e-08 1 -1 4.078427e-08 124.9041 -59.174)" class="st0" width="63.3" height="182.1"/>
	<g>
		<path class="st1" d="M78.5,54.1v-0.2c0.2-0.1,0.3-0.2,0.5-0.3c0-0.2,0-0.5,0-0.9c0-0.7,0-1.1,0-1.4v-2c0-0.3,0-0.7,0-1.1
			c0-0.3,0-0.4-0.1-0.5c0,0-0.1-0.1-0.1-0.1c-0.1,0-0.3-0.1-0.7-0.1v-0.3c0.5,0,0.9,0,1.2,0c0.3,0,0.7,0,1.1,0c0.5,0,0.8,0,1.1,0
			c0.8,0,1.4,0.1,1.9,0.3s0.9,0.5,1.2,1s0.5,1,0.5,1.7c0,0.5-0.1,0.9-0.2,1.4c-0.2,0.4-0.4,0.8-0.6,1.1c-0.3,0.3-0.6,0.6-0.9,0.8
			s-0.6,0.3-1,0.4s-0.8,0.1-1.4,0.1c-0.2,0-0.5,0-0.8,0c-0.4,0-0.7,0-0.9,0C79.3,54.1,79,54.1,78.5,54.1z M80,53.6
			c0.4,0.1,0.7,0.1,1.1,0.1c0.4,0,0.8,0,1.1-0.1s0.6-0.2,0.8-0.3c0.2-0.1,0.4-0.3,0.6-0.6c0.2-0.3,0.4-0.6,0.5-1s0.2-0.8,0.2-1.2
			c0-0.6-0.1-1.1-0.3-1.5c-0.2-0.4-0.5-0.8-1-1c-0.4-0.2-1-0.3-1.8-0.3c-0.4,0-0.8,0-1.2,0.1c0,0.2,0,0.4,0,0.8l0,0.7v1.9l0,1.5
			C80,53,80,53.3,80,53.6z"/>
		<path class="st1" d="M89,54.2c-0.1-0.3-0.3-0.8-0.6-1.6l-1.6-4.1c-0.2-0.4-0.3-0.7-0.3-0.7c0,0-0.1-0.1-0.1-0.1
			c-0.1,0-0.2-0.1-0.5-0.1v-0.3c0.6,0,1,0,1.3,0c0.3,0,0.7,0,1.3,0v0.3c-0.4,0-0.6,0-0.7,0c-0.1,0-0.1,0-0.1,0.1s0,0.1,0,0.1
			c0,0,0,0.1,0.1,0.2c0.1,0.4,0.3,0.8,0.4,1l1.5,3.8l1.3-3.2c0.2-0.5,0.4-0.9,0.5-1.5c0.1-0.2,0.1-0.4,0.1-0.4c0-0.1,0-0.1-0.1-0.2
			c-0.1,0-0.3,0-0.7-0.1v-0.3c0.5,0,0.9,0,1.1,0c0.3,0,0.6,0,1,0v0.3c-0.2,0-0.4,0-0.4,0c0,0-0.1,0.1-0.1,0.1c0,0-0.1,0.3-0.4,0.8
			l-1.5,3.7l-0.4,1c-0.1,0.2-0.1,0.4-0.2,0.5c0,0.1-0.1,0.3-0.2,0.5H89z"/>
		<path class="st1" d="M93.1,50.8c0-0.5,0.1-1,0.2-1.4c0.2-0.4,0.4-0.8,0.8-1.2c0.4-0.3,0.8-0.6,1.2-0.8c0.4-0.2,1-0.3,1.5-0.3
			c0.5,0,1,0.1,1.4,0.2c0.4,0.1,0.8,0.3,1.1,0.6c0.3,0.2,0.5,0.5,0.7,0.8c0.1,0.2,0.2,0.5,0.3,0.8s0.1,0.6,0.1,1
			c0,1.1-0.4,2-1.1,2.7c-0.7,0.7-1.6,1.1-2.8,1.1c-0.5,0-1-0.1-1.4-0.2c-0.4-0.2-0.8-0.4-1.1-0.7s-0.5-0.7-0.7-1.2
			C93.2,51.7,93.1,51.2,93.1,50.8z M94.1,50.4c0,0.3,0,0.6,0.1,0.9c0.1,0.3,0.1,0.6,0.2,0.8c0.2,0.4,0.4,0.7,0.6,1
			c0.2,0.3,0.5,0.5,0.8,0.6c0.3,0.1,0.6,0.2,1,0.2c0.5,0,1-0.1,1.4-0.4c0.4-0.3,0.7-0.6,0.9-1.1s0.3-1,0.3-1.6c0-0.5-0.1-1-0.2-1.4
			c-0.1-0.3-0.2-0.5-0.3-0.7s-0.3-0.4-0.5-0.6s-0.4-0.3-0.7-0.4c-0.3-0.1-0.6-0.2-1-0.2c-0.5,0-1,0.1-1.3,0.3s-0.7,0.6-0.9,1
			C94.2,49.3,94.1,49.8,94.1,50.4z"/>
		<path class="st1" d="M100.8,47.6v-0.3c0.1,0,0.3,0,0.6,0l0.9,0c0.2,0,0.5,0,0.9,0c0.5,0,0.8,0,0.9,0c0.6,0,1.1,0.1,1.3,0.2
			s0.5,0.3,0.7,0.5c0.2,0.2,0.2,0.5,0.2,0.8c0,0.3-0.1,0.5-0.2,0.8c-0.1,0.3-0.4,0.5-0.6,0.7s-0.6,0.3-1.1,0.4
			c0.1,0.1,0.3,0.4,0.6,0.8l1.2,1.6c0.3,0.4,0.5,0.7,0.6,0.7c0,0,0.1,0,0.1,0c0,0,0.2,0,0.3,0v0.3c-0.2,0-0.5,0-0.6,0
			c-0.2,0-0.4,0-0.7,0c-0.2-0.2-0.6-0.7-1.1-1.4c-0.3-0.4-0.5-0.7-0.7-1c-0.3-0.4-0.7-0.8-1-1.2l0-0.1c0.2,0,0.3,0,0.4,0
			c0.6,0,1-0.1,1.3-0.4s0.5-0.6,0.5-1.1c0-0.4-0.1-0.7-0.4-0.9c-0.3-0.2-0.7-0.3-1.2-0.3c-0.3,0-0.7,0-1,0.1c0,0.2,0,0.3,0,0.5
			c0,0,0,0.5,0,1.4v2.1c0,0.4,0,0.9,0,1.3c0,0.3,0,0.5,0.1,0.5c0,0.1,0.1,0.1,0.2,0.1s0.3,0,0.7,0.1v0.3c-0.5,0-0.9,0-1.3,0
			c-0.3,0-0.8,0-1.6,0v-0.3c0.4,0,0.6,0,0.7-0.1c0.1,0,0.1-0.1,0.2-0.1c0-0.1,0.1-0.2,0.1-0.5c0-0.1,0-0.5,0-1.4v-2.2
			c0-0.4,0-0.9,0-1.3c0-0.3,0-0.5-0.1-0.5c0-0.1-0.1-0.1-0.2-0.1C101.4,47.6,101.2,47.6,100.8,47.6z"/>
	</g>
	<g>
		<g>
			<line class="st2" x1="74.7" y1="50.3" x2="32.6" y2="50.3"/>
		</g>
		<g>
			<g>
				<polygon class="st2" points="74.4,50.9 32.3,50.3 32.3,50.3 32.3,50.3 74.4,49.7 				"/>
			</g>
			<g>
				<polygon class="st2" points="109.7,49.7 151.7,50.3 151.7,50.3 151.7,50.3 109.7,50.9 				"/>
			</g>
		</g>
	</g>
	<g>
		<path class="st1" d="M69.3,22.3c-4.2-0.7-7.8-2.8-8.5-3.1c-2.3,2.7-3.8,7-4.8,9.4c2.2,0.3,5.3,0.3,6.8,0.2
			c1.2-0.1,1.2,0.4,0.1,0.7c-1.3,0.3-5.5,0.4-7.3,0.2c-2.5,6.8-6.4,15.9-18.2,15.9c-8.5,0-13.9-6.4-11.3-14.3
			c0.7-2.1,2.7-3.5,3.8-3.8c1.2-0.4,0.4,0.2-0.7,0.9c-0.9,0.7-2.4,1.7-2.8,4.2c-1.3,7.1,5.3,11,10.6,11.2
			c8.1,0.4,13.8-6.4,17.3-14.3c-1.4,0-6.2-0.5-7.9,1.9c-0.4,0.6-0.8,0.1-0.6-0.3c1.7-3.7,5.5-3.6,9-2.9c1.7-4.2,4.6-8.7,5.3-9.5
			c-3.1-1.5-6.3-2.9-9.9-3.5c-9.9-1.5-14.5,7.6-11.2,9.7c3.7,2.3,7.6-1.2,7.6-2.2c0-0.8,1.1-1.5,0.6-0.1c-1.1,3.5-5.6,4.8-8.5,3.2
			c-6-3.4,0.2-15.3,12.2-11.9c4,1.1,7.5,2.8,9.7,4.2c0.4-0.4,1.4-1.6,3.1-1.1c0.9,0.3,0.8,1.8,0,0.9c-0.8-0.3-1.7,0.2-2.2,0.7
			c2.4,1.3,10.5,4.3,11.9,1.4c0.5-1.2,0.9-0.7,0.7,0.2C73.7,21.6,71.7,22.7,69.3,22.3z"/>
		<path class="st1" d="M65.7,33.9c-0.2,0.6-0.5,1.5-0.8,2.4c-1.1,4.4,1.8,5,3.7,2.3c1.2-1.7,2.2-3.7,2.7-4.6
			c0.3-0.6,0.9-0.5,0.5,0.2C71,36.1,69.1,41,65.4,41c-4.1,0-2.3-5-1.7-7.2c1.1-4.1,3.4-9.3,5.5-12.8c2.6-4.3,6.5-3.8,3.9,2
			C71.4,26.7,69.2,30.7,65.7,33.9z M71.7,20.8c-1.8,2.5-4.6,9-5.7,11.9c2.6-2.6,5.2-6.9,6.6-10.3C73.3,20.8,73.7,18,71.7,20.8z"/>
		<path class="st1" d="M78.4,40.6c-1.1,0-1.9-0.4-2.3-0.9c-1,0.8-2.1,1.3-3.2,1.2c-2.8-0.1-3.2-3.4-1.8-6.6c1.4-3.3,4.4-6.2,6.9-6.1
			c2.8,0,3.2,3.4,1.8,6.6c-0.5,1.3-1.7,3-3.1,4.3c0.3,0.5,0.8,0.9,1.7,0.9c2.3,0,4.2-4.5,5.1-6.3c0.2-0.4,0.8-0.2,0.5,0.3
			C83.5,35.4,81.5,40.6,78.4,40.6z M73.7,34.1c-1.4,3-1.7,5.5-0.4,5.9c0.7,0.2,1.6-0.2,2.5-0.9c-0.4-0.6-0.6-1.2-0.6-1.8
			c0-0.8,0.4-1.6,1.3-1.6c0.6,0,1.1,0.5,1.1,1.1c0,0.1,0,0.3-0.1,0.4c0.4-0.6,0.8-1.3,1.1-2c1.4-3,1.6-5.6,0.3-6
			C77.2,28.9,75,31.3,73.7,34.1z"/>
		<path class="st1" d="M88.2,40.9c-1.2,0.3-3.5-0.8-2-4.6c0.5-1.5,1.9-3.4,2.3-4.3c0.5-1.2-0.8-1.7-2.8-1.7l-0.4,1.2
			c-0.9,2.3-2.6,6.3-4.4,8c-0.3,0.3-0.5-0.1-0.3-0.5c2.9-3.8,4.9-9.3,5.6-13.3c0.4-2,2.7-1.1,2.2,1.3c-0.2,1-1.4,2-2,2.4
			c1.3,0.1,3.2,0,5-0.1c0.3,0.5-0.3,1.9-0.8,2.8c-0.5,1.1-4.3,7.8-2.1,7.9c1.5,0,3.7-4.5,4.5-6.1c0.3-0.6,0.8-0.4,0.4,0.4
			C92.4,36.4,90.6,40.3,88.2,40.9z"/>
		<path class="st1" d="M94.2,40.1c0.5,0.1,1.2-0.3,1.6-0.7c1.2-1.2,2.4-3.5,3.4-5.5c0.3-0.7,0.8-0.4,0.5,0.3c-0.9,2-3,6.7-5.7,6.7
			c-2.7,0-2.7-2.8-2-4.7l2.3-5.9c0.3-0.7-0.2-1.3-0.4-1.5l2,0c1.2,0,1.2,0.4,0.8,1.3l-2.9,6.8c0,0-0.4,0.8-0.4,1.1
			C93.1,39,93.2,40,94.2,40.1z M96.8,27.2c-0.8,0-1.4-0.7-1.3-1.5c0.1-0.8,0.9-1.5,1.7-1.5c0.8,0,1.4,0.7,1.3,1.5
			C98.4,26.5,97.7,27.2,96.8,27.2z"/>
		<path class="st1" d="M107,41c-1.2,0.1-2.9-0.9-1.8-4.7c-0.6,0.9-1.6,2.4-2.6,3.4c-4.2,4-6.9-2.4-1.5-8.9c2.2-2.6,6.4-3.9,8.4-1.7
			c0.5,0.5,0.2,1.2-0.4,1.1c-0.4-1.3-1.7-1.6-3.1-0.9c-1.6,0.9-3.5,3.1-4.8,5.2c-0.3,0.5-1.3,2.3-1.5,3.7c-0.4,2.5,1.6,2.3,3.3,0.2
			c1.3-1.5,2.3-3.3,3.2-5.1c0.8-1.5,1.3-2.4,2.5-2.3c0.5,0,1,0.3,1.5,0.1c-0.8,0.8-2.9,4.6-3.4,6.8c-0.3,1.5-0.1,2.2,0.4,2.2
			c1.5,0.1,3.9-4.5,4.7-6.1c0.3-0.7,0.9-0.4,0.5,0.3C111.4,36.4,109.2,40.8,107,41z M105.4,26.6c-0.2-0.1-0.2-0.3-0.1-0.5
			c0.1-0.3,3.9-2.8,4.5-3.3c0.6-0.4,1.4-0.8,2.1-0.4c0.4,0.2,0.5,0.6,0.3,1C111.9,24,105.6,26.7,105.4,26.6z"/>
		<path class="st1" d="M118.7,41c-1.3,0-3-0.9-1.9-4.3c0.3-0.9,1-2.2,2-3.8c0.9-1.4,0.2-2.4-2.6,0.2c-1.2,1.1-3,3.2-5.1,7.2
			c-0.3,0.5-0.6,0.5-1.4,0.5c-0.5,0-0.9,0-1.2,0.2c1.7-3.5,3.2-6.9,5-10.2c0.9-1.7,1.4-2.4,2.6-2.3c0.5,0,1,0.3,1.5,0.1
			c-1.1,0.6-3.1,4.2-4.4,6.8c0.7-0.9,1.9-2.3,3-3.3c1.7-1.6,5.5-3.9,6.7-3.4c0,0-3.9,6.8-4.4,9.4c-0.3,1.5,0.1,1.8,0.6,1.8
			c1.9,0,4.2-4.8,5-6.3c0.3-0.7,0.9-0.4,0.5,0.3C123.6,36.4,121.5,41,118.7,41z"/>
		<path class="st1" d="M131.3,40.6c-1.1,0-1.9-0.4-2.3-0.9c-1,0.8-2.1,1.3-3.2,1.2c-2.8-0.1-3.2-3.4-1.8-6.6
			c1.4-3.3,4.4-6.2,6.9-6.1c2.8,0,3.2,3.4,1.8,6.6c-0.5,1.3-1.7,3-3.1,4.3c0.3,0.5,0.8,0.9,1.7,0.9c2.3,0,4.2-4.5,5.1-6.3
			c0.2-0.4,0.8-0.2,0.5,0.3C136.3,35.4,134.3,40.6,131.3,40.6z M126.5,34.1c-1.4,3-1.7,5.5-0.4,5.9c0.7,0.2,1.6-0.2,2.5-0.9
			c-0.4-0.6-0.6-1.2-0.6-1.8c0-0.8,0.4-1.6,1.3-1.6c0.6,0,1.1,0.5,1.1,1.1c0,0.1,0,0.3-0.1,0.4c0.4-0.6,0.8-1.3,1.1-2
			c1.4-3,1.6-5.6,0.3-6C130.1,28.9,127.8,31.3,126.5,34.1z"/>
		<path class="st1" d="M145.9,28.9c-0.8,2.6-3.9,13.2-8.9,12.2c-2.2-0.4-1.3-3.7-0.3-6.5c-0.4,0.6-0.9,0.4-0.7-0.1l0.7-1.2
			c0.7-1.4,1.1-4.3,0.1-4.5c0,0,1.5-0.3,1.8-0.3c1.1-0.1,1.4-0.3,1.3,1.5c0,1.2-0.6,3.2-1.1,4.4c-0.9,2.4-1.8,5.1-0.9,5.5
			c1.7,0.8,3.7-2.3,5.2-5.9c-0.5-1.1-0.6-2.7-0.3-3.6c1-3.2,3.8-3.2,3.1-1.6C145.9,28.7,145.9,28.8,145.9,28.9z"/>
	</g>
</g>
</svg>
