<?xml version="1.0" encoding="utf-8"?>
<!-- Generator: Adobe Illustrator 20.1.0, SVG Export Plug-In . SVG Version: 6.00 Build 0)  -->
<svg version="1.1" id="Layer_1" xmlns="http://www.w3.org/2000/svg" xmlns:xlink="http://www.w3.org/1999/xlink" x="0px" y="0px"
	 viewBox="0 0 90.9 34.6" style="enable-background:new 0 0 90.9 34.6;" xml:space="preserve">
<style type="text/css">
	.st0{fill:#222222;}
	.st1{clip-path:url(#SVGID_2_);}
	.st2{fill:none;stroke:#B48A3E;stroke-width:2;stroke-miterlimit:10;}
	.st3{fill:#FFFFFF;}
	.st4{font-family:'Palatino-Roman';}
	.st5{font-size:4.41px;}
	.st6{fill:#B58B36;}
	.st7{enable-background:new    ;}
	.st8{fill:url(#SVGID_3_);}
	.st9{fill:url(#SVGID_4_);}
</style>
<title>logo</title>
<rect x="4.8" class="st0" width="81.2" height="33.6"/>
<g>
	<g>
		<g>
			<defs>
				<rect id="SVGID_1_" x="3.8" width="83.2" height="34.6"/>
			</defs>
			<clipPath id="SVGID_2_">
				<use xlink:href="#SVGID_1_"  style="overflow:visible;"/>
			</clipPath>
			<g class="st1">
				<rect x="4.8" y="0.5" class="st2" width="81.2" height="33.6"/>
			</g>
		</g>
	</g>
</g>
<text transform="matrix(1 0 0 1 39.2158 26.99)" class="st3 st4 st5">DVOR</text>
<path class="st6" d="M18.9,25.3L18.9,25.3z"/>
<polygon class="st6" points="18.8,25.3 37.5,25.5 37.5,25 "/>
<polygon class="st6" points="53.3,25.5 72,25.3 53.3,25 "/>
<g class="st7">
	<path class="st3" d="M35.2,12.8c-1.9-0.3-3.5-1.3-3.8-1.4c-1,1.2-1.7,3.1-2.2,4.2c1,0.1,2.4,0.1,3,0.1c0.6,0,0.5,0.2,0,0.3
		c-0.6,0.1-2.4,0.2-3.3,0.1c-1.1,3-2.9,7.1-8.1,7.1c-3.8,0-6.2-2.9-5.1-6.4c0.3-0.9,1.2-1.5,1.7-1.7s0.2,0.1-0.3,0.4
		c-0.4,0.3-1.1,0.8-1.2,1.9c-0.6,3.2,2.4,4.9,4.7,5c3.6,0.2,6.2-2.9,7.7-6.4c-0.6,0-2.8-0.2-3.5,0.9c-0.2,0.3-0.3,0-0.3-0.1
		c0.7-1.7,2.5-1.6,4-1.3c0.8-1.9,2-3.9,2.3-4.2c-1.4-0.7-2.8-1.3-4.4-1.5c-4.4-0.7-6.5,3.4-5,4.3c1.6,1,3.4-0.5,3.4-1
		c0-0.4,0.5-0.6,0.3-0.1c-0.5,1.6-2.5,2.2-3.8,1.4C18.8,12.8,21.6,7.5,27,9c1.8,0.5,3.3,1.2,4.3,1.9c0.2-0.2,0.6-0.7,1.4-0.5
		c0.4,0.1,0.4,0.8,0,0.4c-0.4-0.1-0.7,0.1-1,0.3c1.1,0.6,4.7,1.9,5.3,0.6c0.2-0.5,0.4-0.3,0.3,0.1C37.2,12.5,36.3,13,35.2,12.8z"/>
	<path class="st3" d="M33.6,18c-0.1,0.3-0.2,0.7-0.3,1.1c-0.5,1.9,0.8,2.2,1.7,1c0.5-0.8,1-1.6,1.2-2.1c0.1-0.3,0.4-0.2,0.2,0.1
		c-0.4,0.9-1.2,3-2.9,3c-1.8,0-1-2.2-0.8-3.2c0.5-1.8,1.5-4.1,2.5-5.7c1.2-1.9,2.9-1.7,1.7,0.9C36.2,14.8,35.2,16.5,33.6,18z
		 M36.3,12.1c-0.8,1.1-2.1,4-2.6,5.3c1.2-1.2,2.3-3.1,2.9-4.6C37,12.1,37.2,10.9,36.3,12.1z"/>
	<path class="st3" d="M39.3,21c-0.5,0-0.8-0.2-1-0.4c-0.5,0.3-0.9,0.6-1.4,0.6c-1.2,0-1.4-1.5-0.8-2.9c0.6-1.5,2-2.8,3.1-2.7
		c1.2,0,1.4,1.5,0.8,2.9c-0.2,0.6-0.7,1.3-1.4,1.9c0.1,0.2,0.4,0.4,0.8,0.4c1,0,1.9-2,2.3-2.8c0.1-0.2,0.4-0.1,0.2,0.1
		C41.6,18.6,40.7,21,39.3,21z M37.2,18.1c-0.6,1.3-0.8,2.5-0.2,2.6c0.3,0.1,0.7-0.1,1.1-0.4c-0.2-0.3-0.3-0.6-0.3-0.8
		c0-0.4,0.2-0.7,0.6-0.7c0.3,0,0.5,0.2,0.5,0.5c0,0.1,0,0.1,0,0.2c0.2-0.3,0.4-0.6,0.5-0.9c0.6-1.3,0.7-2.5,0.1-2.7
		C38.8,15.7,37.8,16.8,37.2,18.1z"/>
	<path class="st3" d="M43.7,21.1c-0.6,0.1-1.5-0.4-0.9-2c0.2-0.7,0.8-1.5,1-1.9c0.2-0.5-0.3-0.7-1.2-0.8l-0.2,0.5
		c-0.4,1-1.2,2.8-2,3.6c-0.1,0.1-0.2-0.1-0.1-0.2c1.3-1.7,2.2-4.1,2.5-5.9c0.2-0.9,1.2-0.5,1,0.6c-0.1,0.5-0.6,0.9-0.9,1.1
		c0.6,0,1.4,0,2.2-0.1c0.1,0.2-0.1,0.8-0.3,1.2c-0.2,0.5-1.9,3.5-0.9,3.5c0.7,0,1.7-2,2-2.7c0.1-0.3,0.4-0.2,0.2,0.2
		C45.6,19.1,44.7,20.8,43.7,21.1z"/>
	<path class="st3" d="M46.4,20.7c0.2,0,0.6-0.1,0.7-0.3c0.5-0.5,1.1-1.5,1.5-2.4c0.1-0.3,0.4-0.2,0.2,0.1c-0.4,0.9-1.3,3-2.5,3
		s-1.2-1.3-0.9-2.1l1-2.6c0.1-0.3-0.1-0.6-0.2-0.7h0.9c0.5,0,0.5,0.2,0.3,0.6l-1.3,3c0,0-0.2,0.4-0.2,0.5
		C45.9,20.2,45.9,20.7,46.4,20.7z M47.6,15c-0.4,0-0.6-0.3-0.6-0.7c0.1-0.4,0.4-0.7,0.8-0.7c0.4,0,0.6,0.3,0.6,0.7
		C48.3,14.7,47.9,15,47.6,15z"/>
	<path class="st3" d="M52.1,21.1c-0.5,0-1.3-0.4-0.8-2.1c-0.3,0.4-0.7,1.1-1.2,1.5c-1.9,1.8-3.1-1.1-0.6-4c1-1.2,2.8-1.8,3.8-0.7
		c0.2,0.2,0.1,0.5-0.2,0.5c-0.2-0.6-0.8-0.7-1.4-0.4c-0.7,0.4-1.6,1.4-2.2,2.3c-0.1,0.2-0.6,1-0.7,1.6c-0.2,1.1,0.7,1,1.5,0.1
		c0.6-0.7,1-1.5,1.4-2.3c0.4-0.7,0.6-1.1,1.1-1c0.2,0,0.5,0.1,0.7,0.1c-0.3,0.3-1.3,2-1.5,3c-0.1,0.7,0,1,0.2,1c0.7,0,1.8-2,2.1-2.7
		c0.1-0.3,0.4-0.2,0.2,0.1C54.1,19.1,53.1,21,52.1,21.1z M51.4,14.7c-0.1,0-0.1-0.1,0-0.2c0.1-0.1,1.7-1.3,2-1.5s0.6-0.4,0.9-0.2
		c0.2,0.1,0.2,0.3,0.1,0.4C54.3,13.5,51.5,14.7,51.4,14.7z"/>
	<path class="st3" d="M57.3,21.1c-0.6,0-1.3-0.4-0.9-1.9c0.1-0.4,0.4-1,0.9-1.7c0.4-0.6,0.1-1.1-1.2,0.1c-0.6,0.5-1.3,1.4-2.3,3.2
		C53.7,21,53.5,21,53.2,21c-0.2,0-0.4,0-0.6,0.1c0.8-1.5,1.4-3.1,2.2-4.5c0.4-0.8,0.6-1.1,1.2-1c0.2,0,0.5,0.1,0.7,0.1
		c-0.5,0.3-1.4,1.9-2,3c0.3-0.4,0.8-1,1.3-1.5c0.8-0.7,2.4-1.7,3-1.5c0,0-1.7,3-1.9,4.2c-0.1,0.7,0,0.8,0.3,0.8
		c0.8,0,1.9-2.1,2.2-2.8c0.1-0.3,0.4-0.2,0.2,0.1C59.5,19.1,58.6,21.1,57.3,21.1z"/>
	<path class="st3" d="M62.9,21c-0.5,0-0.8-0.2-1-0.4c-0.5,0.3-0.9,0.6-1.4,0.6c-1.2,0-1.4-1.5-0.8-2.9c0.6-1.5,2-2.8,3.1-2.7
		c1.2,0,1.4,1.5,0.8,2.9c-0.2,0.6-0.7,1.3-1.4,1.9c0.1,0.2,0.4,0.4,0.8,0.4c1,0,1.9-2,2.3-2.8c0.1-0.2,0.4-0.1,0.2,0.1
		C65.2,18.6,64.3,21,62.9,21z M60.8,18.1c-0.6,1.3-0.8,2.5-0.2,2.6c0.3,0.1,0.7-0.1,1.1-0.4c-0.2-0.3-0.3-0.6-0.3-0.8
		c0-0.4,0.2-0.7,0.6-0.7c0.3,0,0.5,0.2,0.5,0.5c0,0.1,0,0.1,0,0.2c0.2-0.3,0.4-0.6,0.5-0.9c0.6-1.3,0.7-2.5,0.1-2.7
		C62.4,15.7,61.4,16.8,60.8,18.1z"/>
	<path class="st3" d="M69.4,15.7c-0.4,1.2-1.7,5.9-4,5.4c-1-0.2-0.6-1.7-0.1-2.9c-0.2,0.3-0.4,0.2-0.3,0l0.3-0.6
		c0.3-0.6,0.5-1.9,0-2c0,0,0.7-0.1,0.8-0.1c0.5,0,0.6-0.1,0.6,0.7c0,0.5-0.3,1.4-0.5,2c-0.4,1.1-0.8,2.3-0.4,2.5
		c0.8,0.3,1.7-1,2.3-2.6c-0.2-0.5-0.3-1.2-0.1-1.6C68.5,14.9,69.8,14.9,69.4,15.7L69.4,15.7z"/>
</g>
<linearGradient id="SVGID_3_" gradientUnits="userSpaceOnUse" x1="3.8358" y1="17.3" x2="-7.974779e-02" y2="17.3">
	<stop  offset="0" style="stop-color:#1E1E1E"/>
	<stop  offset="1" style="stop-color:#222222"/>
</linearGradient>
<polygon class="st8" points="0,3.8 0,17.5 -0.1,30.7 3.8,34.6 3.8,17.5 3.8,0 "/>
<linearGradient id="SVGID_4_" gradientUnits="userSpaceOnUse" x1="87.0359" y1="17.3" x2="90.9209" y2="17.3">
	<stop  offset="0" style="stop-color:#1E1E1E"/>
	<stop  offset="1" style="stop-color:#222222"/>
</linearGradient>
<polygon class="st9" points="90.9,18.4 90.9,3.8 87,0 87,18.4 87,34.6 90.9,30.7 "/>
</svg>
